# xmcd
#
# Track frame offsets:
#	150
#	13568
#	26530
#	38490
#	51263
#	64328
#	77808
#	89265
#	101390
#	112753
#	124840
#	137825
#	149083
#	160945
#	171018
#	182140
#	193975
#	206718
#	217153
#	228423
#
# Disc length: 3180 seconds
#
# Revision: 2
# Processed by: cddbd v1.4PL0 Copyright (c) Steve Scherf et al.
# Submitted via: EasyCDDAExtractor 4.6.0.1
#
DISCID=200c6a14
DTITLE=Robert Johnson - The Original Blues Legend
DYEAR=1993
DGENRE=Blues
TTITLE0=I Believe I'll Dust My Broom
TTITLE1=Rambling On My Mind
TTITLE2=When You Got A Good Friend
TTITLE3=Come On In My Kitchen
TTITLE4=32.20 Blues
TTITLE5=They're Red Hot
TTITLE6=Dead Shrimp Blues
TTITLE7=Cross Road Blues
TTITLE8=Walking Blues
TTITLE9=Last Fair Deal Gone Down
TTITLE10=Preachin' Blues (Up Jumped The Devil)
TTITLE11=Stones In My Passway
TTITLE12=Hellhound On My Trail
TTITLE13=Little Queen Of Spades
TTITLE14=Drunken Hearted Man
TTITLE15=Me and The Devil Blues
TTITLE16=Travelling Riverside Blues
TTITLE17=Honeymoon Blues
TTITLE18=Love In Vain
TTITLE19=Milkcow's Calf Blues
EXTD=
EXTT0=
EXTT1=
EXTT2=
EXTT3=
EXTT4=
EXTT5=
EXTT6=
EXTT7=
EXTT8=
EXTT9=
EXTT10=
EXTT11=
EXTT12=
EXTT13=
EXTT14=
EXTT15=
EXTT16=
EXTT17=
EXTT18=
EXTT19=
PLAYORDER=
